# Alias OBJ Model File
# Exported from SketchUp, (c) 2000-2012 Trimble Navigation Limited
# File units = meters

mtllib Abstract-Art_Pointalist-1.mtl

g Mesh1 Group1 Model

usemtl BACK
v -0.502236 0.551222 3.15836e-16
vt 0 43.4033
vn 0 2.48678e-16 -1
v 0.502236 -0.551222 3.94795e-17
vt -39.5462 -2.70566e-30
v -0.502236 -0.551222 3.94795e-17
vt 0 -2.70566e-30
f 1/1/1 2/2/1 3/3/1

v 0.502236 0.551222 3.15836e-16
vt -39.5462 43.4033
f 2/2/1 1/1/1 4/4/1

usemtl Pointalist_Study_1
vt 2.00052 0.967684
vn 0 1 2.48678e-16
v 0.502236 0.551222 0.035
vt 1.00052 0.999432
vt 1.00052 0.967684
f 1/5/2 5/6/2 4/7/2

v -0.502236 0.551222 0.035
vt 2.00052 0.999432
f 5/6/2 1/5/2 6/8/2

vt 0.964287 1.00025
vn -1 0 -0
v -0.502236 -0.551222 0.035
vt 0.999132 0.000251363
vt 0.999132 1.00025
f 1/9/3 7/10/3 6/11/3

vt 0.964287 0.000251363
f 7/10/3 1/9/3 3/12/3

vt 1.00065 -0.999585
vn 0 -1 -2.48678e-16
vt 0.000645559 -0.967838
vt 0.000645559 -0.999585
f 2/13/4 7/14/4 3/15/4

v 0.502236 -0.551222 0.035
vt 1.00065 -0.967838
f 7/14/4 2/13/4 8/16/4

vt 0.995718 0.999998
vn 1 0 -0
vt 0.960874 -1.50916e-06
vt 0.995718 -1.50916e-06
f 4/17/5 8/18/5 2/19/5

vt 0.960874 0.999998
f 8/18/5 4/17/5 5/20/5

vt 1 1
vn 0 -2.48678e-16 1
vt 0 1.13595e-33
vt 1 1.13595e-33
f 5/21/6 7/22/6 8/23/6

vt 0 1
f 7/22/6 5/21/6 6/24/6

