# Alias OBJ Model File
# Exported from SketchUp, (c) 2000-2012 Trimble Navigation Limited
# File units = meters

mtllib Painting-003.mtl

g Mesh1 Group1 Model

usemtl Color_M00
v 0.693533 -0.765729 -6.38076e-08
vt -54.6089 -3.80061e-15
vn -1.76687e-08 2.41339e-15 -1
v -0.693533 -0.765729 -3.92999e-08
vt -2.78248e-08 3.90772e-07
v -0.693533 0.765729 -3.92999e-08
vt -4.59276e-07 60.2936
v 0.693533 0.765729 -6.38076e-08
vt -54.6089 60.2936
f 1/1/1 2/2/1 3/3/1 4/4/1 

usemtl Art_003
vt 1 1
vn 1.76687e-08 -2.41339e-15 1
vt 5.39134e-10 1
vt 5.39135e-10 -4.88232e-17
vt 1 -3.84321e-17
f 4/5/2 3/6/2 2/7/2 1/8/2 

v -0.693533 0.765729 0.04
vt 0.00487238 0.971926
vn 7.15583e-09 1 4.38551e-15
v 0.693533 0.765729 0.0399999
vt 1.00487 0.971926
vt 1.00487 0.998045
vt 0.00487238 0.998045
f 5/9/3 6/10/3 4/11/3 3/12/3 

v -0.693533 -0.765729 0.04
vt 1.27786e-09 -1.68489e-16
vn 1.76687e-08 -2.40604e-15 1
v 0.693533 -0.765729 0.0399999
vt 1 -9.91741e-17
vt 1.27786e-09 1
f 7/13/4 8/14/4 6/5/4 5/15/4 

vt 1 -9.84405e-17
vn -7.15583e-09 -1 -1.00155e-15
vt 1.39104e-09 -1.67755e-16
vt 9.65089e-10 -1.04986e-16
vt 1 -9.4595e-17
f 8/16/5 7/17/5 2/18/5 1/19/5 

vn 7.15583e-09 1 1.00155e-15
f 1/19/6 2/18/6 7/17/6 8/16/6 

vn -1 7.15583e-09 1.76687e-08
vt 1.39104e-09 1
vt 9.65088e-10 1
f 7/17/7 5/20/7 3/21/7 2/18/7 

vn 1 -7.15583e-09 -1.76687e-08
f 2/18/8 3/21/8 5/20/8 7/17/8 

vn -7.15583e-09 -1 -4.38551e-15
f 3/21/9 4/5/9 6/5/9 5/20/9 

f 6/5/8 8/16/8 1/19/8 4/5/8 

f 4/5/7 1/19/7 8/16/7 6/5/7 

vn -1.76687e-08 2.40604e-15 -1
f 5/15/10 6/5/10 8/14/10 7/13/10 

