# Alias OBJ Model File
# Exported from SketchUp, (c) 2000-2012 Trimble Navigation Limited
# File units = meters

mtllib Painting-004.mtl

g Mesh1 Group1 Model

usemtl Art_004
v -0.688511 -0.758179 0.0399999
vt 1.28717e-09 -5.11459e-17
vn 1.76687e-08 -2.25021e-15 1
v 0.688511 -0.758179 0.0399999
vt 1 -1.26167e-16
v 0.688511 0.758179 0.0399999
vt 1 1
v -0.688511 0.758179 0.0399999
vt 1.28717e-09 1
f 1/1/1 2/2/1 3/3/1 4/4/1 

vn -1.76687e-08 2.25021e-15 -1
f 4/4/2 3/3/2 2/2/2 1/1/2 

vt -0.00274033 0.970003
vn 7.15583e-09 1 -1.26434e-16
vt 0.99726 0.970003
v 0.688511 0.758179 -9.1638e-08
vt 0.99726 0.996382
v -0.688511 0.758179 -6.73078e-08
vt -0.00274033 0.996382
f 4/5/3 3/6/3 5/7/3 6/8/3 

vt 1.01035e-09 1
vn -7.15583e-09 -1 1.26434e-16
vt 1.43941e-09 1
f 6/9/4 5/3/4 3/3/4 4/10/4 

usemtl Color_M00
v 0.688511 -0.758179 -9.1638e-08
vt -54.2135 -3.54233e-15
vn -1.76687e-08 2.24938e-15 -1
v -0.688511 -0.758179 -6.73078e-08
vt -2.78248e-08 3.87942e-07
vt -4.55022e-07 59.6991
vt -54.2135 59.6991
f 7/11/5 8/12/5 6/13/5 5/14/5 

usemtl Art_004
vt 1 -1.25177e-16
vn -7.15583e-09 -1 -1.00155e-15
vt 1.43941e-09 -5.01566e-17
vt 1.01035e-09 1.32375e-17
vt 1 -1.21294e-16
f 2/15/6 1/16/6 8/17/6 7/18/6 

vn 7.15583e-09 1 1.00155e-15
f 7/18/7 8/17/7 1/16/7 2/15/7 

vn 1.76687e-08 -2.24938e-15 1
vt 5.81295e-10 1
vt 5.81295e-10 6.99597e-17
vt 1 -6.45714e-17
f 5/3/8 6/19/8 8/20/8 7/21/8 

vn -1 7.15583e-09 1.76687e-08
f 1/16/9 4/10/9 6/9/9 8/17/9 

vn 1 -7.15583e-09 -1.76687e-08
f 8/17/10 6/9/10 4/10/10 1/16/10 

f 3/3/10 2/15/10 7/18/10 5/3/10 

f 5/3/9 7/18/9 2/15/9 3/3/9 

