# Alias OBJ Model File
# Exported from SketchUp, (c) 2000-2012 Trimble Navigation Limited
# File units = meters

mtllib Painting-001.mtl

g Mesh1 Group1 Model

usemtl Art_001
v 0.684638 -0.75091 0.04
vt -0.00653432 2.00639
vn 0 -1 -0
v -0.684638 -0.75091 0.04
vt 0.993466 2.00639
v -0.684638 -0.75091 3.90558e-09
vt 0.993466 2.03622
v 0.684638 -0.75091 -3.90557e-09
vt -0.00653432 2.03622
f 1/1/1 2/2/1 3/3/1 4/4/1 

vt 1.37969e-10 -1.20173e-16
vn -0 1 0
vt 1 -1.20173e-16
f 4/5/2 3/6/2 2/6/2 1/5/2 

usemtl Color_M00
vt -53.9085 -8.41194e-31
vn -5.70458e-09 5.34158e-31 -1
vt -8.9836e-09 -8.41194e-31
v -0.684638 0.75091 3.90558e-09
vt -8.9836e-09 59.1267
v 0.684638 0.75091 -3.90557e-09
vt -53.9085 59.1267
f 4/7/3 3/8/3 5/9/3 6/10/3 

usemtl Art_001
vt 5.31797e-11 1
vn 5.70458e-09 -5.34158e-31 1
vt 1 1
vt 5.31797e-11 -1.20173e-16
f 6/11/4 5/12/4 3/6/4 4/13/4 

v -0.684638 0.75091 0.04
vt 5.00423 2.71526
vn 0 1 -0
v 0.684638 0.75091 0.04
vt 6.00423 2.71526
vt 6.00423 2.74509
vt 5.00423 2.74509
f 7/14/5 8/15/5 6/16/5 5/17/5 

vn -0 -1 0
vt 1.37969e-10 1
f 5/12/6 6/18/6 8/18/6 7/12/6 

vt 7.01378 0.997385
vn 1 0 -7.15582e-09
vt 7.01378 -0.00261526
vt 7.0465 -0.00261526
vt 7.0465 0.997385
f 8/19/7 1/20/7 4/21/7 6/22/7 

vn -1 -0 7.15582e-09
f 6/18/8 4/5/8 1/5/8 8/18/8 

vn 5.70458e-09 0 1
vt 8.47897e-11 -1.20173e-16
vt 8.47897e-11 1
f 2/6/9 1/23/9 8/24/9 7/12/9 

vn -5.70458e-09 -0 -1
f 7/12/10 8/24/10 1/23/10 2/6/10 

vt -1.45222 -1.20173e-16
vn -1 0 7.15583e-09
vt -1.45222 1
vt -1.48494 1
vt -1.48494 -1.20173e-16
f 2/25/11 7/26/11 5/27/11 3/28/11 

vn 1 -0 -7.15583e-09
f 3/6/12 5/12/12 7/12/12 2/6/12 

