# Alias OBJ Model File
# Exported from SketchUp, (c) 2000-2012 Trimble Navigation Limited
# File units = meters

mtllib Painting-006.mtl

g Mesh1 Group1 Model

usemtl Art_006
v 0.690544 -0.766201 0.0399999
vt 1 -1.764e-17
vn -7.15583e-09 -1 -3.25752e-15
v -0.690544 -0.766201 0.0399999
vt 1.42372e-09 -2.27558e-16
v -0.690544 -0.766201 -1.25757e-07
vt 9.95925e-10 -4.61035e-17
v 0.690544 -0.766201 -1.50159e-07
vt 1 -1.37766e-17
f 1/1/1 2/2/1 3/3/1 4/4/1 

vn 7.15583e-09 1 3.25752e-15
f 4/4/2 3/3/2 2/2/2 1/1/2 

usemtl Color_M00
vt -54.3735 -3.40963e-15
vn -1.76687e-08 2.16512e-15 -1
vt -2.78248e-08 3.89088e-07
v -0.690544 0.758179 -1.25757e-07
vt -4.57282e-07 60.0149
v 0.690544 0.758179 -1.50159e-07
vt -54.3735 60.0149
f 4/5/3 3/6/3 5/7/3 6/8/3 

usemtl Art_006
vt 1 1
vn 1.76687e-08 -2.16512e-15 1
vt 5.68128e-10 1
vt 5.68126e-10 1.03201e-17
vt 1 4.2647e-17
f 6/9/4 5/10/4 3/11/4 4/12/4 

v -0.690544 0.758179 0.0399999
vt 0.00317878 0.964907
vn 7.15583e-09 1 -1.26434e-16
v 0.690544 0.758179 0.0399999
vt 1.00318 0.964907
vt 1.00318 0.991147
vt 0.00317878 0.991147
f 7/13/5 8/14/5 6/15/5 5/16/5 

vt 9.95926e-10 1
vn -7.15583e-09 -1 1.26434e-16
vt 1.42372e-09 1
f 5/17/6 6/9/6 8/9/6 7/18/6 

vn 1 -7.15583e-09 -1.76688e-08
f 8/9/7 1/1/7 4/4/7 6/9/7 

vn -1 7.15583e-09 1.76688e-08
f 6/9/8 4/4/8 1/1/8 8/9/8 

vt 1.28338e-09 -2.28468e-16
vn 1.76687e-08 -2.16504e-15 1
vt 1 -1.85498e-17
vt 1.28338e-09 1
f 2/19/9 1/20/9 8/9/9 7/21/9 

vn -1.76687e-08 2.16504e-15 -1
f 7/21/10 8/9/10 1/20/10 2/19/10 

vn -1 7.15583e-09 1.76687e-08
f 2/2/11 7/18/11 5/17/11 3/3/11 

vn 1 -7.15583e-09 -1.76687e-08
f 3/3/12 5/17/12 7/18/12 2/2/12 

