# Alias OBJ Model File
# Exported from SketchUp, (c) 2000-2012 Trimble Navigation Limited
# File units = meters

mtllib Painting-005.mtl

g Mesh1 Group1 Model

usemtl Art_005
v -0.688662 -0.760802 0.0399999
vt 1.87562e-09 -3.44275e-16
vn -1 7.15583e-09 1.76687e-08
v -0.688662 0.758179 0.0399999
vt 1.87562e-09 1
v -0.688662 0.758179 -9.56592e-08
vt 1.44666e-09 1
v -0.688662 -0.760802 -9.56592e-08
vt 1.44666e-09 -3.40398e-16
f 1/1/1 2/2/1 3/3/1 4/4/1 

vn 1 -7.15583e-09 -1.76687e-08
f 4/4/2 3/3/2 2/2/2 1/1/2 

usemtl Color_M00
v 0.688662 -0.760802 -1.19995e-07
vt -54.2254 3.48676e-15
vn -1.76687e-08 2.29785e-15 -1
vt -2.78248e-08 3.88028e-07
vt -4.55761e-07 59.8024
v 0.688662 0.758179 -1.19995e-07
vt -54.2254 59.8024
f 5/5/3 4/6/3 3/7/3 6/8/3 

usemtl Art_005
v 0.688662 -0.760802 0.0399999
vt 1 -3.66806e-16
vn -7.15583e-09 -1 -2.12954e-15
vt 1 -2.44114e-16
f 7/9/4 1/1/4 4/4/4 5/10/4 

vn 7.15583e-09 1 2.12954e-15
f 5/10/5 4/4/5 1/1/5 7/9/5 

vt 1 1
vn 1.76687e-08 -2.29785e-15 1
vt 5.88728e-10 1
vt 5.88728e-10 -1.67742e-16
vt 1 -7.14576e-17
f 6/11/6 3/12/6 4/13/6 5/14/6 

vt -0.00028624 0.972281
vn 7.15583e-09 1 4.38551e-15
v 0.688662 0.758179 0.0399999
vt 0.999714 0.972281
vt 0.999714 0.998614
vt -0.00028624 0.998614
f 2/15/7 8/16/7 6/17/7 3/18/7 

vn -7.15583e-09 -1 -4.38551e-15
f 3/3/8 6/11/8 8/11/8 2/2/8 

f 8/11/2 7/9/2 5/10/2 6/11/2 

f 6/11/1 5/10/1 7/9/1 8/11/1 

vt 1.71586e-09 -3.45312e-16
vn 1.76687e-08 -2.29852e-15 1
vt 1 -3.67842e-16
vt 1.71586e-09 1
f 1/19/9 7/20/9 8/11/9 2/21/9 

vn -1.76687e-08 2.29852e-15 -1
f 2/21/10 8/11/10 7/20/10 1/19/10 

